<?xml version="1.0" standalone="no"?>
<!DOCTYPE svg PUBLIC "-//W3C//DTD SVG 20010904//EN"
 "http://www.w3.org/TR/2001/REC-SVG-20010904/DTD/svg10.dtd">
<svg version="1.0" xmlns="http://www.w3.org/2000/svg"
 width="288.000000pt" height="281.000000pt" viewBox="0 0 288.000000 281.000000"
 preserveAspectRatio="xMidYMid meet">

<g transform="translate(0.000000,281.000000) scale(0.100000,-0.100000)"
fill="#000000" stroke="none">
<path d="M1370 2740 c-174 -17 -390 -79 -538 -154 -272 -137 -470 -336 -598
-601 -96 -200 -135 -364 -136 -570 -2 -655 472 -1215 1117 -1321 145 -23 383
-15 521 20 194 48 339 116 494 232 199 148 323 304 416 525 62 147 95 295 98
444 2 72 2 108 0 80 -23 -303 -96 -525 -243 -735 -63 -91 -232 -257 -321 -317
-152 -102 -316 -171 -469 -198 -264 -46 -391 -44 -594 6 -416 104 -765 429
-901 839 -55 168 -77 361 -57 515 13 102 42 247 48 241 2 -2 -3 -47 -12 -100
-8 -53 -15 -110 -14 -128 1 -18 11 28 24 102 76 436 309 754 689 939 351 171
762 173 1123 6 40 -18 73 -31 73 -29 0 9 -184 92 -260 118 -91 30 -207 54
-320 66 -83 9 -82 9 35 5 338 -11 638 -145 885 -394 183 -186 307 -428 353
-691 4 -25 4 -25 6 2 1 36 -24 143 -55 231 -162 449 -558 780 -1024 855 -94
16 -253 21 -340 12z"/>
<path d="M1322 2265 c-11 -13 -28 -54 -38 -90 -14 -50 -24 -67 -39 -70 -11 -2
-92 -11 -180 -20 -104 -11 -213 -31 -310 -56 -209 -53 -265 -78 -265 -121 0
-24 27 -23 35 2 12 38 132 75 370 115 141 23 345 46 354 39 2 -2 -11 -76 -28
-166 -46 -239 -201 -1277 -201 -1348 0 -22 2 -23 15 -9 18 18 77 370 185 1104
36 242 66 405 77 416 12 12 341 29 726 38 290 8 341 11 363 26 14 9 24 18 22
20 -5 5 -679 -14 -897 -25 -112 -5 -206 -9 -208 -7 -8 9 30 124 47 143 24 24
25 34 6 34 -8 0 -23 -11 -34 -25z"/>
<path d="M2792 1585 c0 -16 2 -22 5 -12 2 9 2 23 0 30 -3 6 -5 -1 -5 -18z"/>
<path d="M2741 1474 c0 -11 3 -14 6 -6 3 7 2 16 -1 19 -3 4 -6 -2 -5 -13z"/>
<path d="M2802 1435 c0 -16 2 -22 5 -12 2 9 2 23 0 30 -3 6 -5 -1 -5 -18z"/>
</g>
</svg>
